<svg xmlns="http://www.w3.org/2000/svg" data-name="Layer 1" viewBox="0 0 100 125" x="0px" y="0px"><title>33</title><g data-name="Group"><path data-name="Compound Path" d="M72.9,37.6l6.9-2.4H90.1a1,1,0,0,0,1-1V27.7a6.2,6.2,0,0,0-12.5,0v5.8l-6.7,2.3L51,26.2V17.9h4.2a1,1,0,0,0,1-1V10.3a6.2,6.2,0,0,0-12.5,0v6.5a1,1,0,0,0,1,1H49v8.4L28.2,35.8l-6.8-3.2V26.8a6.2,6.2,0,1,0-12.5,0v6.5a1,1,0,0,0,1,1H20.2l7,3.2V60.6l-7,3.2H9.9a1,1,0,0,0-1,1v6.5a6.2,6.2,0,1,0,12.5,0V65.4l6.9-3.1L49,71.9V82.1H44.8a1,1,0,0,0-1,1v6.5a6.2,6.2,0,1,0,12.5,0V83.1a1,1,0,0,0-1-1H51V71.9l20.8-9.6,6.8,3.2v5.8a6.2,6.2,0,1,0,12.5,0V64.8a1,1,0,0,0-1-1H79.7l-6.8-3.2Zm7.7-9.9a4.2,4.2,0,0,1,8.5,0v5.5H80.6ZM45.8,10.3a4.2,4.2,0,0,1,8.5,0v5.5H45.8ZM19.4,32.3H10.9V26.8a4.2,4.2,0,1,1,8.5,0Zm0,39.1a4.2,4.2,0,1,1-8.5,0V65.8h8.5ZM54.2,89.7a4.2,4.2,0,1,1-8.5,0V84.1h8.5ZM80.6,65.8h8.5v5.5a4.2,4.2,0,1,1-8.5,0ZM50,45.9l-19.5-9,19.5-9,19.5,9ZM29.1,38.5,49,47.6v22L29.1,60.5ZM51,69.7v-22l19.9-9.2v22Z"/></g><text x="0" y="115" fill="#000000" font-size="5px" font-weight="bold" font-family="'Helvetica Neue', Helvetica, Arial-Unicode, Arial, Sans-serif">Created by Daily icons</text><text x="0" y="120" fill="#000000" font-size="5px" font-weight="bold" font-family="'Helvetica Neue', Helvetica, Arial-Unicode, Arial, Sans-serif">from the Noun Project</text></svg>